#!OML:ASF F:\VICON\USERDATA\INSTALL\rory3\rory3.ASF
:FULLY-SPECIFIED
:DEGREES
29
root 0.07470746202648165 17.970053601863867 5.337002019184117 -1.6258680508757224 -5.1652825310242045 0.7166518858844619
lfemur 12.089951634951596 -4.379077654619074 -25.70757081890688
ltibia 16.84663434344031
lfoot -6.509410106974458 -4.081810453325897
ltoes -2.3765022466611194
rfemur -26.78956318000828 2.7277380136307325 20.08532176038662
rtibia 48.66432688959637
rfoot -6.609496202664325 -1.0643320461110761
rtoes 6.327146094093789
lowerback 1.0 0.35535475341543027 -1.5545574477590138
upperback 0.41508235133463717 -0.048142674232116045 1.0123708993889378
thorax -4.998543489443077 0.11163828943169196 2.1880426728664686
lowerneck -16.735233099163676 -2.9608657443495097 -1.1852852589777756
upperneck 21.16945770580246 -3.8487173707715026 0.9637912117984019
head 9.55406572489185 -1.8398855957494837 0.1457476225011309
lclavicle -1.0678830218753886e-15 -4.0575738815224093e-16
lhumerus -22.843866297350182 -4.987458827848519 82.46357255836203
lradius 29.36599421855217
lwrist 5.917066069614064
lhand -27.36298466218903 23.883244633923923
lfingers nan
lthumb -0.3100938061884223 54.30628632466508
rclavicle -1.1251827901880687e-15 -4.52820532872012e-16
rhumerus -31.966781870035735 -20.51353706651631 -81.5645993957126
rradius 23.969129086456743
rwrist 4.231013790399887
rhand -17.851717493417045 1.0
rfingers nan
rthumb 8.592332695319286 -7.301724153439765
30
root 0.07348233309581076 17.950082214517554 5.575588673783433 -1.857378022275055 -5.1613385630073445 1.3497674671658726
lfemur 11.979996477674643 -4.113311226380137 -24.825700287109925
ltibia 20.862975624767806
lfoot -7.190937073890391 -2.8313981911645714
ltoes -3.4038976812727335
rfemur -27.321286558082196 2.659916846883328 19.464635834416754
rtibia 43.63283263605487
rfoot -7.399055648084054 -0.8553762466312396
rtoes 5.687488474266981
lowerback 1.0 0.36326373704974835 -2.242067530147653
upperback 0.44687329988561375 -0.044669637024618236 0.8718546069511931
thorax -4.962526161095074 -0.016535669101154893 2.3011596752787327
lowerneck -16.831182164562613 -2.9250450012844635 -1.1058599929641666
upperneck 21.255417366520824 -3.8338206366991474 0.9331278753509353
head 9.66726391331526 -1.8243290349819556 0.127636219336199
lclavicle -1.0666504515090513e-15 -4.0227982570931743e-16
lhumerus -22.881055758769264 -3.713184324826744 82.35211267131226
lradius 30.20906467120293
lwrist 5.530955584018237
lhand -27.21774458277171 23.147461416912595
lfingers nan
lthumb -0.20797035109670614 53.60144623764435
rclavicle -1.1416802031893323e-15 -4.645134737713385e-16
rhumerus -32.83295230809272 -21.10478704052293 -80.25224848412311
rradius 24.018610232268678
rwrist 3.519566017776888
rhand -17.914700085501565 1.0
rfingers nan
rthumb 8.54380886886909 -6.7305289063265095
31
root 0.08063532100408716 17.928030824586692 6.520924633824889 -2.0551380865043587 -5.0113574590147145 1.7208781173038483
lfemur 11.155564117126126 -3.8404339383097 -24.214239755269986
ltibia 25.472558967793322
lfoot -6.49795049273631 -0.726999347474976
ltoes -5.885812058822124
rfemur -27.596965877297006 2.721894278541055 19.160279877204175
rtibia 38.08651521703442
rfoot -8.175473949733084 -1.2313076994857264
rtoes 4.910711302829873
lowerback 1.0 0.056212057199118926 -2.555621741560183
upperback 0.5851888193835391 -0.40122961377075583 1.1482680982807132
thorax -4.82871643776758 -0.14747408075524804 2.5687776212315274
lowerneck -17.144069949988925 -2.898621951568817 -1.27985385686795
upperneck 21.08966223892144 -3.78041546292848 1.0024847661104839
head 9.658040081797765 -1.8063349648131166 0.16322461217716716
lclavicle -1.0686818770676308e-15 -4.030274592359985e-16
lhumerus -23.304678392751356 -3.303912557876896 82.30859097541614
lradius 30.628647980061928
lwrist 5.163283740782155
lhand -27.342276692254995 22.764576780786225
lfingers nan
lthumb -0.31592127330105 53.342986422709764
rclavicle -1.155218036918686e-15 -4.746211738403145e-16
rhumerus -33.29031056406843 -21.858758311868108 -78.7720141827298
rradius 24.8277166270213
rwrist 2.0634461820296712
rhand -17.857228370692233 1.0
rfingers nan
rthumb 8.562664636662058 -7.148101161051284
32
root 0.10440949178773695 17.91260307228725 8.643641402839545 -2.1045902656704962 -4.646850928063657 2.199051880707746
lfemur 10.02289312396271 -3.6095708713579655 -23.734279095309557
ltibia 30.642112238980367
lfoot -5.694613944902667 1.5543956145684925
ltoes -6.95274870650499
rfemur -27.63998113310003 2.833162384380203 18.729772912829137
rtibia 32.92561234659855
rfoot -8.276518287722272 -2.385361542894415
rtoes 3.8528880271808985
lowerback 1.0 -0.10960879562453973 -2.8505656279505724
upperback 0.6254915026066333 -0.6038943604041875 1.111255286074243
thorax -4.794563399873559 -0.28551937637279634 2.8153789570217427
lowerneck -17.056485697805634 -2.843814799384616 -1.434141886149669
upperneck 20.990446680311127 -3.6742737558173575 1.0025650948442864
head 9.603317652198234 -1.7628909762723133 0.1963208151577624
lclavicle -1.0738920100862574e-15 -4.066230940631816e-16
lhumerus -23.75161487384966 -3.377307470014949 82.35830409007852
lradius 30.658823344092234
lwrist 4.950061411221496
lhand -27.548648888151913 22.42470794259858
lfingers nan
lthumb -0.583761599906792 52.96328047718904
rclavicle -1.1496149225568714e-15 -4.697766016745006e-16
rhumerus -33.57332833416543 -23.314456015685515 -77.43306754576324
rradius 25.386106310210717
rwrist 0.9924951758366678
rhand -17.61150491647498 1.0
rfingers nan
rthumb 8.600244219985589 -7.004227913794559
33
root 0.12729609594062308 17.899379851498093 9.82343324691116 -2.2773125304979724 -4.500130059835103 2.6093221582821173
lfemur 8.91601851778584 -3.306667209944009 -23.35375050532557
ltibia 35.45951737126451
lfoot -4.386848386248193 2.6563898442083924
ltoes -8.913268856275844
rfemur -27.531098010739278 2.9929094889200716 18.42571374693496
rtibia 28.655925173825846
rfoot -7.6384948470538525 -4.451858479228687
rtoes 2.8570359737351576
lowerback 1.0 -0.17011625519980011 -3.085315831269511
upperback 0.556791801003011 -0.8308049862393527 1.0755764099525726
thorax -4.871822168022685 -0.39213302113934645 2.9576968479423287
lowerneck -16.974778290680337 -2.7511268423878916 -1.4631483528818343
upperneck 21.195988336180324 -3.53731449414473 0.852988927027412
head 9.575198225025238 -1.7225268638406945 0.1757094741075154
lclavicle -1.0785676701021042e-15 -4.0939513459008154e-16
lhumerus -24.119528304079132 -4.04870252976303 82.48571350097787
lradius 30.287231510543993
lwrist 5.003793892813456
lhand -27.585003521835276 23.04754600604867
lfingers nan
lthumb -0.6113534781001378 53.60404563114862
rclavicle -1.1487861678340092e-15 -4.683881706796644e-16
rhumerus -33.708206105480535 -24.993246177604114 -76.36444645580669
rradius 25.832793726909152
rwrist 1.7539689460700059
rhand -17.56548851625263 1.0
rfingers nan
rthumb 8.750259707645512 -7.674078173048686
